<svg width="879" height="61" viewBox="0 0 879 61" fill="none" xmlns="http://www.w3.org/2000/svg">
<path d="M21 36.6969C36.8514 36.6969 52.806 36.3974 68.6471 36.6969C97.4346 37.2412 125.915 40 154.765 40C196.076 40 236.065 37.0749 276.794 33.8985C295.35 32.4513 314.733 32.1475 333.441 31.3294C365.375 29.9329 397.156 27.7635 429.088 26.4206C459.475 25.1428 489.96 24.461 520.324 23.0258C542.682 21.969 564.616 20.4652 587.118 21.1908C606.703 21.8223 626.295 22.7861 645.882 23.3011C662.603 23.7406 679.261 22.9884 695.824 24.4938C724.396 27.091 752.173 27.4835 780.882 28.5309C791.065 28.9025 802.019 30.2743 812.029 31.3753C820.972 32.3589 827.871 34.8912 836.382 36.2382C844.077 37.4558 849.685 38.3485 858 38.3485" stroke="#1F7A8C" stroke-width="42" stroke-linecap="square"/>
</svg>
