<svg width="107" height="95" viewBox="0 0 107 95" fill="none" xmlns="http://www.w3.org/2000/svg">
<path d="M76.0592 88.7259C69.1061 83.2844 58.7154 79.726 50.7671 75.6966C35.3853 67.8989 1.77187 55.0875 3.40182 33.0832C4.58299 17.1374 15.285 15.4292 27 14.9993C36.0318 14.6678 46 21.97 55.289 41.5139C55.3236 41.8944 55.2042 45.529 55.4423 42.4336C55.9867 35.3561 57.5209 28.3237 60.8073 21.97C64.8767 14.1025 79 -7.00008 97.8258 8.78745C113.5 33.0832 96.4728 52.9893 82.5 65.8097C73.5735 74 73.6135 75.5528 65 82.2522C61.1988 85.2086 57.5342 86.7741 50.7671 92.5" stroke="#1F7A8C" stroke-width="5" stroke-linecap="round"/>
</svg>
