<svg width="70" height="66" viewBox="0 0 70 66" fill="none" xmlns="http://www.w3.org/2000/svg">
<path d="M10.1142 60.0961C10.88 54.7349 16.0687 49.4305 18.9829 45.1479C25.1876 36.0297 29.3946 26.5759 34.1457 16.682C35.8564 13.1194 37.8301 9.78773 39.939 6.45428C40.4652 5.62246 41.6164 2.86518 42.7999 2.59208C43.5281 2.42403 43.7724 19.1837 44.0158 20.6872C45.3133 28.7044 49.7113 36.3778 52.0978 44.1466C53.9121 50.0527 56.0515 55.9632 58.2487 61.7411C59.5406 65.1383 59.7159 62.8441 56.6752 61.0974C48.3419 56.3102 40.8862 50.0876 32.9655 44.6472C25.3811 39.4377 17.6219 34.1137 9.57774 29.6275C7.53827 28.4901 1.02604 26.2426 3.35529 26.409C6.32481 26.6211 9.38647 27.9924 12.3313 28.4832C18.6564 29.5373 25.134 29.7706 31.5351 29.7706C41.2092 29.7706 50.9186 28.8306 60.4659 27.3031C62.684 26.9482 70.7835 25.7128 64.6857 28.3044C57.9352 31.1734 51.4976 34.7453 44.731 37.6023C35.7687 41.3863 27.6996 45.4715 20.163 51.6922C17.6838 53.7385 15.2775 55.8599 12.8678 57.9861C11.1475 59.504 11.0809 59.4593 10.7579 57.5213" stroke="#1F7A8C" stroke-width="5" stroke-linecap="round"/>
</svg>
