<svg width="72" height="46" viewBox="0 0 72 46" fill="none" xmlns="http://www.w3.org/2000/svg">
<path d="M3 20C1.34315 20 0 21.3431 0 23C0 24.6569 1.34315 26 3 26L3 20ZM71.1213 25.1213C72.2929 23.9497 72.2929 22.0503 71.1213 20.8787L52.0294 1.7868C50.8579 0.615224 48.9584 0.615224 47.7868 1.7868C46.6152 2.95837 46.6152 4.85786 47.7868 6.02944L64.7574 23L47.7868 39.9706C46.6152 41.1421 46.6152 43.0416 47.7868 44.2132C48.9584 45.3848 50.8579 45.3848 52.0294 44.2132L71.1213 25.1213ZM3 26L69 26V20L3 20L3 26Z" fill="white"/>
</svg>
