<svg width="30" height="30" viewBox="0 0 30 30" fill="none" xmlns="http://www.w3.org/2000/svg">
<path d="M15.0014 0C10.9276 0 10.4164 0.017813 8.81634 0.0906262C7.21945 0.163752 6.12944 0.416567 5.17568 0.787508C4.18911 1.17064 3.35222 1.68314 2.51846 2.51721C1.68408 3.35097 1.17157 4.18786 0.787195 5.17412C0.415317 6.12819 0.162189 7.21851 0.0903133 8.81478C0.0187501 10.4148 0 10.9264 0 15.0002C0 19.0739 0.0181255 19.5836 0.0906262 21.1837C0.164064 22.7806 0.416879 23.8706 0.787508 24.8243C1.17095 25.8109 1.68345 26.6478 2.51753 27.4815C3.35097 28.3159 4.18786 28.8297 5.1738 29.2128C6.12819 29.5837 7.21851 29.8366 8.81509 29.9097C10.4151 29.9825 10.9261 30.0003 14.9995 30.0003C19.0736 30.0003 19.5833 29.9825 21.1833 29.9097C22.7802 29.8366 23.8715 29.5837 24.8259 29.2128C25.8121 28.8297 26.6478 28.3159 27.4812 27.4815C28.3156 26.6478 28.8281 25.8109 29.2125 24.8246C29.5812 23.8706 29.8344 22.7802 29.9094 21.184C29.9812 19.584 30 19.0739 30 15.0002C30 10.9264 29.9812 10.4151 29.9094 8.81509C29.8344 7.2182 29.5812 6.12819 29.2125 5.17443C28.8281 4.18786 28.3156 3.35097 27.4812 2.51721C26.6468 1.68283 25.8125 1.17032 24.8249 0.787508C23.8687 0.416567 22.778 0.163752 21.1812 0.0906262C19.5811 0.017813 19.0718 0 14.9967 0H15.0014ZM13.6558 2.70315C14.0551 2.70253 14.5008 2.70315 15.0014 2.70315C19.0064 2.70315 19.4811 2.71753 21.0627 2.7894C22.5252 2.85628 23.319 3.10066 23.8477 3.30597C24.5478 3.57785 25.0468 3.90285 25.5715 4.42786C26.0965 4.95286 26.4215 5.45287 26.694 6.15288C26.8993 6.68101 27.144 7.47476 27.2106 8.93728C27.2825 10.5185 27.2981 10.9936 27.2981 14.9967C27.2981 18.9999 27.2825 19.4749 27.2106 21.0562C27.1437 22.5187 26.8993 23.3124 26.694 23.8406C26.4221 24.5406 26.0965 25.039 25.5715 25.5637C25.0465 26.0887 24.5481 26.4137 23.8477 26.6856C23.3196 26.8918 22.5252 27.1356 21.0627 27.2025C19.4815 27.2743 19.0064 27.29 15.0014 27.29C10.9961 27.29 10.5214 27.2743 8.94009 27.2025C7.47758 27.135 6.68382 26.8906 6.15475 26.6853C5.45474 26.4134 4.95474 26.0884 4.42973 25.5634C3.90473 25.0384 3.57972 24.5396 3.30722 23.8393C3.10191 23.3112 2.85722 22.5174 2.79065 21.0549C2.71878 19.4736 2.7044 18.9986 2.7044 14.993C2.7044 10.9873 2.71878 10.5148 2.79065 8.93353C2.85753 7.47102 3.10191 6.67726 3.30722 6.1485C3.5791 5.44849 3.90473 4.94849 4.42973 4.42348C4.95474 3.89848 5.45474 3.57347 6.15475 3.30097C6.68351 3.09472 7.47758 2.85097 8.94009 2.78378C10.3239 2.72128 10.8601 2.70253 13.6558 2.6994V2.70315ZM23.0084 5.1938C22.0146 5.1938 21.2083 5.99912 21.2083 6.9932C21.2083 7.98696 22.0146 8.79322 23.0084 8.79322C24.0021 8.79322 24.8084 7.98696 24.8084 6.9932C24.8084 5.99944 24.0021 5.19318 23.0084 5.19318V5.1938ZM15.0014 7.29695C10.7473 7.29695 7.2982 10.746 7.2982 15.0002C7.2982 19.2543 10.7473 22.7018 15.0014 22.7018C19.2555 22.7018 22.7034 19.2543 22.7034 15.0002C22.7034 10.746 19.2552 7.29695 15.0011 7.29695H15.0014ZM15.0014 10.0001C17.7627 10.0001 20.0015 12.2386 20.0015 15.0002C20.0015 17.7614 17.7627 20.0002 15.0014 20.0002C12.2398 20.0002 10.0014 17.7614 10.0014 15.0002C10.0014 12.2386 12.2398 10.0001 15.0014 10.0001Z" fill="#2A2A2A"/>
</svg>
