<svg width="166" height="37" viewBox="0 0 166 37" fill="none" xmlns="http://www.w3.org/2000/svg">
<path d="M48.9443 30V8.7H62.8043V10.08H50.4743V18.54H60.9443V19.86H50.4743V30H48.9443Z" fill="#2A2A2A"/>
<path d="M66.1568 30V8.7H67.6868V28.62H80.4068V30H66.1568Z" fill="#2A2A2A"/>
<path d="M99.4884 8.7V30H97.9584V19.8H84.5184V30H82.9884V8.7H84.5184V18.42H97.9584V8.7H99.4884Z" fill="#2A2A2A"/>
<path d="M104.449 30V8.7H105.979V28.62H118.699V30H104.449Z" fill="#2A2A2A"/>
<path d="M140.571 30V11.67L132.201 26.01H131.181L122.811 11.67V30H121.281V8.7H122.811L131.691 23.94L140.571 8.7H142.101V30H140.571Z" fill="#2A2A2A"/>
<path d="M155.567 30.15C154.087 30.15 152.737 29.85 151.517 29.25C150.297 28.63 149.247 27.81 148.367 26.79C147.487 25.77 146.807 24.62 146.327 23.34C145.847 22.04 145.607 20.71 145.607 19.35C145.607 17.93 145.857 16.58 146.357 15.3C146.857 14 147.557 12.85 148.457 11.85C149.377 10.83 150.437 10.03 151.637 9.45C152.857 8.85 154.177 8.55 155.597 8.55C157.097 8.55 158.447 8.86 159.647 9.48C160.867 10.1 161.917 10.93 162.797 11.97C163.677 13.01 164.357 14.17 164.837 15.45C165.317 16.73 165.557 18.03 165.557 19.35C165.557 20.79 165.307 22.16 164.807 23.46C164.307 24.74 163.597 25.89 162.677 26.91C161.777 27.91 160.717 28.7 159.497 29.28C158.297 29.86 156.987 30.15 155.567 30.15ZM155.597 28.74C156.857 28.74 158.007 28.47 159.047 27.93C160.087 27.39 160.977 26.67 161.717 25.77C162.457 24.87 163.017 23.87 163.397 22.77C163.797 21.65 163.997 20.51 163.997 19.35C163.997 18.13 163.787 16.96 163.367 15.84C162.967 14.72 162.387 13.72 161.627 12.84C160.867 11.96 159.967 11.26 158.927 10.74C157.907 10.22 156.797 9.96 155.597 9.96C154.317 9.96 153.157 10.23 152.117 10.77C151.077 11.31 150.187 12.03 149.447 12.93C148.727 13.83 148.157 14.84 147.737 15.96C147.337 17.06 147.137 18.19 147.137 19.35C147.137 20.57 147.347 21.74 147.767 22.86C148.187 23.98 148.767 24.98 149.507 25.86C150.267 26.74 151.157 27.44 152.177 27.96C153.217 28.48 154.357 28.74 155.597 28.74ZM158.117 23.82H159.707L164.837 30H163.247L158.117 23.82Z" fill="#2A2A2A"/>
<path d="M1.24605 22.3067C1.45322 22.5945 1.68623 22.8693 1.94506 23.1282L2.29314 23.4763V22.8057L6.37925 20.1828V24.8135L4.70883 25.8919L5.77823 26.9613L6.37925 26.5733V27.5624L7.98747 29.1706V25.535L17.6489 19.2973V36.2513H15.5005C17.417 37.2496 19.7182 37.2496 21.6347 36.2513H19.2571V17.8982C19.2571 17.6307 19.087 17.3859 18.817 17.2648C18.5471 17.1436 18.223 17.1668 17.9785 17.3246L7.98747 23.7751V19.1504L18.6079 12.3331L34.9227 22.8057V23.3956L35.0549 23.2634C35.4 22.9183 35.6992 22.5447 35.9525 22.1501L18.4601 11.1225L7.98747 17.9267V19.1504L6.37925 20.1828V18.9716L1.24605 22.3067Z" fill="#022B3A"/>
<path d="M0.520587 21.0143L17.9766 9.67295C18.2566 9.49105 18.6371 9.48864 18.92 9.66698L36.6087 20.8182C37.4512 18.4738 36.9333 15.7502 35.0549 13.8718L23.1282 1.94506C20.5348 -0.648354 16.33 -0.648354 13.7366 1.94506L1.94506 13.7366C-0.0224919 15.7041 -0.497315 18.5992 0.520587 21.0143Z" fill="#022B3A"/>
<path d="M32.4382 25.8802L27.7212 22.8273V27.0156H31.3028L32.4382 25.8802Z" fill="#022B3A"/>
<path d="M30.1187 28.1996H27.7212V30.5971L30.1187 28.1996Z" fill="#022B3A"/>
<path d="M26.381 31.9373V28.1996H21.0203V33.7648H24.5536L26.381 31.9373Z" fill="#022B3A"/>
<path d="M21.0203 27.0156H26.381V21.9599L21.0203 18.4902V27.0156Z" fill="#022B3A"/>
</svg>
