<svg width="648" height="207" viewBox="0 0 648 207" fill="none" xmlns="http://www.w3.org/2000/svg">
<path d="M176.473 67.5598H185.433L202.137 113H193.049L188.825 101.672H172.953L168.793 113H159.705L176.473 67.5598ZM187.225 95.4638L180.953 76.7118L174.425 95.4638H187.225Z" fill="#022B3A"/>
<path d="M219.625 113.64C216.894 113.64 214.441 113.192 212.265 112.296C210.089 111.357 208.233 110.077 206.697 108.456C205.161 106.792 203.966 104.915 203.113 102.824C202.302 100.733 201.897 98.5358 201.897 96.2318C201.897 93.0745 202.601 90.1945 204.009 87.5918C205.46 84.9465 207.508 82.8345 210.153 81.2558C212.798 79.6772 215.934 78.8878 219.561 78.8878C223.188 78.8878 226.302 79.6772 228.905 81.2558C231.508 82.8345 233.449 84.9038 234.729 87.4638L226.345 90.0238C225.62 88.7865 224.66 87.8478 223.465 87.2078C222.27 86.5252 220.948 86.1838 219.497 86.1838C217.876 86.1838 216.382 86.6105 215.017 87.4638C213.694 88.2745 212.649 89.4478 211.881 90.9838C211.113 92.4772 210.729 94.2265 210.729 96.2318C210.729 98.1945 211.113 99.9438 211.881 101.48C212.692 102.973 213.758 104.168 215.081 105.064C216.404 105.917 217.876 106.344 219.497 106.344C220.521 106.344 221.481 106.173 222.377 105.832C223.316 105.491 224.148 105.021 224.873 104.424C225.598 103.827 226.132 103.144 226.473 102.376L234.857 104.936C234.089 106.6 232.958 108.093 231.465 109.416C230.014 110.739 228.286 111.784 226.281 112.552C224.318 113.277 222.1 113.64 219.625 113.64Z" fill="#022B3A"/>
<path d="M258.95 111.272C258.225 111.571 257.35 111.912 256.326 112.296C255.302 112.68 254.193 112.979 252.998 113.192C251.846 113.448 250.673 113.576 249.478 113.576C247.899 113.576 246.449 113.299 245.126 112.744C243.803 112.189 242.737 111.315 241.926 110.12C241.158 108.883 240.774 107.283 240.774 105.32V86.0558H236.358V79.4638H240.774V68.5838H249.35V79.4638H256.39V86.0558H249.35V102.44C249.393 103.592 249.713 104.424 250.31 104.936C250.907 105.448 251.654 105.704 252.55 105.704C253.446 105.704 254.321 105.555 255.174 105.256C256.027 104.957 256.71 104.701 257.222 104.488L258.95 111.272Z" fill="#022B3A"/>
<path d="M261.817 100.456V79.4638H270.393V98.5998C270.393 101.16 270.862 103.101 271.801 104.424C272.739 105.704 274.126 106.344 275.961 106.344C277.07 106.344 278.158 106.131 279.225 105.704C280.334 105.235 281.337 104.552 282.233 103.656C283.171 102.76 283.961 101.629 284.601 100.264V79.4638H293.177V103.4C293.177 104.296 293.326 104.936 293.625 105.32C293.966 105.704 294.499 105.939 295.225 106.024V113C294.371 113.128 293.646 113.213 293.049 113.256C292.494 113.341 291.982 113.384 291.513 113.384C289.977 113.384 288.718 113.043 287.737 112.36C286.798 111.635 286.243 110.653 286.073 109.416L285.881 106.728C284.387 108.989 282.467 110.717 280.121 111.912C277.774 113.064 275.193 113.64 272.377 113.64C268.921 113.64 266.297 112.531 264.505 110.312C262.713 108.051 261.817 104.765 261.817 100.456Z" fill="#022B3A"/>
<path d="M298.115 103.08C298.115 100.904 298.712 99.0052 299.907 97.3838C301.144 95.7198 302.851 94.4398 305.027 93.5438C307.203 92.6478 309.699 92.1998 312.515 92.1998C313.923 92.1998 315.352 92.3065 316.803 92.5198C318.254 92.7332 319.512 93.0745 320.579 93.5438V91.7518C320.579 89.6185 319.939 87.9758 318.659 86.8238C317.422 85.6718 315.566 85.0958 313.091 85.0958C311.256 85.0958 309.507 85.4158 307.843 86.0558C306.179 86.6958 304.43 87.6345 302.595 88.8718L299.843 83.2398C302.062 81.7892 304.323 80.7012 306.627 79.9758C308.974 79.2505 311.427 78.8878 313.987 78.8878C318.766 78.8878 322.478 80.0825 325.123 82.4718C327.811 84.8612 329.155 88.2745 329.155 92.7118V103.4C329.155 104.296 329.304 104.936 329.603 105.32C329.944 105.704 330.478 105.939 331.203 106.024V113C330.435 113.128 329.731 113.235 329.091 113.32C328.494 113.405 327.982 113.448 327.555 113.448C325.848 113.448 324.547 113.064 323.651 112.296C322.798 111.528 322.264 110.589 322.051 109.48L321.859 107.752C320.408 109.629 318.595 111.08 316.419 112.104C314.243 113.128 312.024 113.64 309.763 113.64C307.544 113.64 305.539 113.192 303.747 112.296C301.998 111.357 300.611 110.099 299.587 108.52C298.606 106.899 298.115 105.085 298.115 103.08ZM318.979 104.808C319.448 104.296 319.832 103.784 320.131 103.272C320.43 102.76 320.579 102.291 320.579 101.864V98.4718C319.555 98.0452 318.446 97.7252 317.251 97.5118C316.056 97.2558 314.926 97.1278 313.859 97.1278C311.64 97.1278 309.806 97.6185 308.355 98.5998C306.947 99.5385 306.243 100.797 306.243 102.376C306.243 103.229 306.478 104.04 306.947 104.808C307.416 105.576 308.099 106.195 308.995 106.664C309.891 107.133 310.958 107.368 312.195 107.368C313.475 107.368 314.734 107.133 315.971 106.664C317.208 106.152 318.211 105.533 318.979 104.808Z" fill="#022B3A"/>
<path d="M335.825 66.2798H344.401V102.248C344.401 103.784 344.657 104.829 345.169 105.384C345.681 105.896 346.385 106.152 347.281 106.152C347.964 106.152 348.668 106.067 349.393 105.896C350.118 105.725 350.758 105.512 351.313 105.256L352.465 111.784C351.313 112.339 349.969 112.765 348.433 113.064C346.897 113.363 345.51 113.512 344.273 113.512C341.585 113.512 339.494 112.808 338.001 111.4C336.55 109.949 335.825 107.901 335.825 105.256V66.2798Z" fill="#022B3A"/>
<path d="M354.922 113V79.4638H363.498V113H354.922ZM354.922 74.7918V66.2798H363.498V74.7918H354.922Z" fill="#022B3A"/>
<path d="M390.05 111.272C389.325 111.571 388.45 111.912 387.426 112.296C386.402 112.68 385.293 112.979 384.098 113.192C382.946 113.448 381.773 113.576 380.578 113.576C378.999 113.576 377.549 113.299 376.226 112.744C374.903 112.189 373.837 111.315 373.026 110.12C372.258 108.883 371.874 107.283 371.874 105.32V86.0558H367.458V79.4638H371.874V68.5838H380.45V79.4638H387.49V86.0558H380.45V102.44C380.493 103.592 380.813 104.424 381.41 104.936C382.007 105.448 382.754 105.704 383.65 105.704C384.546 105.704 385.421 105.555 386.274 105.256C387.127 104.957 387.81 104.701 388.322 104.488L390.05 111.272Z" fill="#022B3A"/>
<path d="M408.414 113.64C405.726 113.64 403.294 113.192 401.118 112.296C398.942 111.357 397.086 110.099 395.55 108.52C394.014 106.899 392.819 105.064 391.966 103.016C391.155 100.925 390.75 98.7278 390.75 96.4238C390.75 93.2238 391.454 90.3012 392.862 87.6558C394.312 85.0105 396.36 82.8985 399.006 81.3198C401.694 79.6985 404.851 78.8878 408.478 78.8878C412.147 78.8878 415.283 79.6985 417.885 81.3198C420.488 82.8985 422.472 85.0105 423.838 87.6558C425.246 90.2585 425.95 93.0745 425.95 96.1038C425.95 96.6158 425.928 97.1492 425.885 97.7038C425.843 98.2158 425.8 98.6425 425.758 98.9838H399.838C400.008 100.691 400.499 102.184 401.31 103.464C402.163 104.744 403.23 105.725 404.51 106.408C405.832 107.048 407.24 107.368 408.734 107.368C410.44 107.368 412.04 106.963 413.534 106.152C415.07 105.299 416.115 104.189 416.67 102.824L424.03 104.872C423.219 106.579 422.046 108.093 420.51 109.416C419.016 110.739 417.246 111.784 415.198 112.552C413.15 113.277 410.888 113.64 408.414 113.64ZM399.646 93.5438H417.182C417.011 91.8372 416.52 90.3652 415.71 89.1278C414.942 87.8478 413.918 86.8665 412.638 86.1838C411.358 85.4585 409.928 85.0958 408.35 85.0958C406.814 85.0958 405.406 85.4585 404.126 86.1838C402.888 86.8665 401.864 87.8478 401.054 89.1278C400.286 90.3652 399.816 91.8372 399.646 93.5438ZM411.166 75.5598L405.662 73.8958L409.118 66.2798H417.118L411.166 75.5598Z" fill="#022B3A"/>
<path d="M442.246 113.64C439.387 113.64 436.657 113.171 434.054 112.232C431.451 111.293 429.211 109.907 427.334 108.072L430.406 102.504C432.411 104.125 434.374 105.32 436.294 106.088C438.257 106.856 440.134 107.24 441.926 107.24C443.59 107.24 444.913 106.941 445.894 106.344C446.918 105.747 447.43 104.851 447.43 103.656C447.43 102.845 447.153 102.227 446.598 101.8C446.043 101.331 445.233 100.925 444.166 100.584C443.142 100.243 441.883 99.8585 440.39 99.4318C437.915 98.6212 435.846 97.8318 434.182 97.0638C432.518 96.2958 431.259 95.3358 430.406 94.1838C429.595 92.9892 429.19 91.4745 429.19 89.6398C429.19 87.4212 429.745 85.5225 430.854 83.9438C432.006 82.3225 433.585 81.0638 435.59 80.1678C437.638 79.2718 440.027 78.8238 442.758 78.8238C445.147 78.8238 447.409 79.2078 449.542 79.9758C451.675 80.7012 453.617 81.8958 455.366 83.5598L451.91 88.9998C450.203 87.6772 448.582 86.7172 447.046 86.1198C445.51 85.4798 443.953 85.1598 442.374 85.1598C441.478 85.1598 440.625 85.2665 439.814 85.4798C439.046 85.6932 438.406 86.0558 437.894 86.5678C437.425 87.0372 437.19 87.7198 437.19 88.6158C437.19 89.4265 437.403 90.0665 437.83 90.5358C438.299 90.9625 438.982 91.3465 439.878 91.6878C440.817 92.0292 441.947 92.4132 443.27 92.8398C445.958 93.6078 448.219 94.3972 450.054 95.2078C451.931 96.0185 453.339 97.0212 454.278 98.2158C455.217 99.3678 455.686 100.968 455.686 103.016C455.686 106.344 454.47 108.947 452.038 110.824C449.606 112.701 446.342 113.64 442.246 113.64Z" fill="#022B3A"/>
<path d="M311.22 32.2539C280.66 31.4145 250.202 32.4729 220.304 38.1903C194.627 43.1004 166.615 44.6004 142.358 53.5846C123.387 60.6109 104.764 78.9091 119.058 96.3467C126.508 105.435 139.224 112.079 150.525 117.074C185.125 132.367 223.759 138.196 262.279 141.675C300.613 145.136 339.367 146.498 377.877 147.762C410.886 148.845 444.364 150.071 477.321 147.359C499.722 145.516 547.385 138.159 534.969 109.528C524.195 84.6804 480.579 74.5035 453.781 68.4759C429.276 62.9642 404.563 60.6095 379.318 61.2315" stroke="#1F7A8C" stroke-width="5" stroke-linecap="round"/>
<path d="M476.522 44.9998C471.437 59.008 468.131 74.2682 468.611 89.1123" stroke="#022B3A" stroke-width="5" stroke-linecap="round"/>
<path d="M474.739 112.398C471.58 111.252 469.359 109.368 467.974 113.183C466.334 117.701 469.923 115.231 470.97 118.321C472.815 123.771 475.472 112.799 475.259 110.967" stroke="#022B3A" stroke-width="5" stroke-linecap="round"/>
<path d="M559.216 81.8701C580.044 71.0396 601.619 61.8423 622.48 51.0957C626.797 48.8717 654.299 34.832 634.689 42.721C618.272 49.3256 602.987 58.4237 587.266 66.4325C585.146 67.5126 560.187 83.7936 559.619 83.2827C556.042 80.0629 565.078 67.2407 566.581 64.5154C574.543 50.0856 567.617 64.0858 565.472 70.1657C562.242 79.3171 564.109 79.8828 574.452 80.8611C585.097 81.8682 595.76 81.8701 606.437 81.8701" stroke="#1F7A8C" stroke-width="5" stroke-linecap="round"/>
<path d="M561.389 140.716C582.689 150.586 603.153 162.044 624.407 171.991C628.806 174.05 656.724 187.241 638.497 176.538C623.237 167.578 606.695 161.038 590.749 153.488C588.598 152.469 560.46 142.661 560.517 141.899C560.88 137.099 576.551 136.417 579.628 135.942C595.915 133.427 580.601 136.5 574.476 138.516C565.259 141.552 565.952 143.375 571.497 152.16C577.205 161.203 583.719 169.644 590.243 178.096" stroke="#1F7A8C" stroke-width="5" stroke-linecap="round"/>
<path d="M98.3287 117.487C81.5308 133.886 63.5445 148.939 46.6907 165.267C43.2027 168.646 20.947 190.05 37.431 176.819C51.2312 165.742 63.2256 152.607 75.9527 140.388C77.6692 138.74 96.8419 115.927 97.5332 116.252C101.89 118.297 96.9555 133.187 96.3057 136.231C92.8654 152.348 95.4386 136.943 95.7313 130.502C96.172 120.807 94.2208 120.807 84.0382 122.866C73.5572 124.986 63.3512 128.072 53.1319 131.165" stroke="#1F7A8C" stroke-width="5" stroke-linecap="round"/>
<path d="M89.8953 60.7627C67.6988 53.1199 46.1716 43.8106 24.013 36.086C19.4273 34.4874 -9.69208 24.2161 9.53281 33.0013C25.6277 40.3563 42.7509 45.1731 59.3844 51.0562C61.6279 51.8497 90.6211 58.7337 90.6416 59.4972C90.7709 64.3086 75.251 66.5874 72.2394 67.374C56.2942 71.5392 71.2145 66.9187 77.1007 64.2874C85.9604 60.3269 85.0844 58.5833 78.6711 50.4106C72.0697 41.9982 64.7281 34.2659 57.375 26.5244" stroke="#1F7A8C" stroke-width="5" stroke-linecap="round"/>
</svg>
