<svg width="1541" height="93" viewBox="0 0 1541 93" fill="none" xmlns="http://www.w3.org/2000/svg">
<path d="M0.731701 72.6948C0.731701 72.6948 0.731543 50.5 0.730469 0.354004H1540.73V92.3534C1503 92.3534 1420.22 72.0641 1385.73 72.6948C1355.11 73.2549 1335.88 85.3619 1294.23 85.3619C1252.58 85.3619 1221.18 71.5135 1179.73 72.6948C1146.22 73.6499 1124.76 85.3908 1091.23 85.3619C1057.9 85.3331 1030.04 73.9025 996.73 72.6948C952.765 71.101 945.24 85.3619 901.23 85.3619C882.396 85.3619 845.802 73.0666 809.73 72.6948C770.755 72.2932 764.404 85.3619 710.73 85.3619C691.381 85.3619 657.839 73.9948 638.555 72.6948C612.601 70.9453 599.059 85.4373 573.052 85.3619C547.429 85.2876 534.153 73.7394 508.549 72.6948C476.207 71.3754 456.23 85.3619 426.546 85.3619C403.754 85.3619 379.991 73.719 357.23 72.6948C334.469 71.6706 296.5 82.5 274 85.3619C228.991 91.0868 171.266 86.2873 128 72.6948C86 59.5 48.3807 70.8259 0.731701 72.6948Z" fill="white"/>
</svg>
