<svg width="30" height="30" viewBox="0 0 30 30" fill="none" xmlns="http://www.w3.org/2000/svg">
<path d="M15.0959 3.74756C15.1066 3.74758 15.1181 3.74761 15.1304 3.74764L15.2632 3.74805C16.804 3.75371 24.6136 3.81032 26.7192 4.3764C28.01 4.72261 29.0265 5.7429 29.3714 7.03803C29.5614 7.74958 29.6937 8.69533 29.786 9.66799L29.8039 9.86282C29.8184 10.0254 29.8318 10.1883 29.8442 10.3506L29.8587 10.5451C29.9819 12.259 29.9963 13.8629 29.998 14.2138L29.9981 14.2611C29.9982 14.265 29.9982 14.2714 29.9982 14.2714V14.2979C29.9982 14.2979 29.9982 14.3043 29.9981 14.3081L29.998 14.3555C29.9962 14.7196 29.9808 16.4332 29.8442 18.2188L29.8289 18.4138L29.8125 18.609C29.7196 19.6826 29.5804 20.7486 29.3714 21.5313C29.0265 22.8264 28.01 23.8469 26.7192 24.1929C24.5434 24.7781 16.277 24.819 15.1304 24.8219L15.0421 24.8221C15.0349 24.8221 15.0285 24.8221 15.023 24.8221L14.987 24.8221C14.987 24.8221 14.9787 24.8221 14.9733 24.8221L14.8659 24.8219C14.2864 24.8204 11.8886 24.8093 9.37743 24.723L9.05638 24.7116C9.00281 24.7096 8.94922 24.7076 8.89563 24.7056L8.57421 24.6929L8.25353 24.6793C6.17321 24.588 4.18973 24.4383 3.2773 24.1929C1.9865 23.8469 0.970071 22.8264 0.625086 21.5313C0.416087 20.7486 0.276754 19.6826 0.183865 18.609L0.167483 18.4138L0.152094 18.2188C0.0204438 16.4981 0.00133334 14.8444 -0.00144076 14.4005L-0.00177225 14.337C-0.00179551 14.3312 -0.0018149 14.326 -0.00183105 14.3212V14.2481C-0.0018149 14.2433 -0.00179551 14.238 -0.00177225 14.2323L-0.00144076 14.1688C0.00107163 13.7668 0.0169834 12.3725 0.117758 10.8348L0.130802 10.642C0.133052 10.6097 0.135339 10.5774 0.137665 10.5451L0.152094 10.3506C0.164513 10.1883 0.177935 10.0254 0.192438 9.86282L0.210368 9.66799C0.302663 8.69533 0.435087 7.74958 0.625086 7.03803C0.970071 5.7429 1.9865 4.72261 3.2773 4.3764C4.18973 4.1311 6.17321 3.98146 8.25353 3.89019L8.57421 3.8766L8.89563 3.8639C8.94922 3.86186 9.00281 3.85985 9.05638 3.85788L9.37743 3.84646C11.7283 3.76576 13.9798 3.75082 14.7331 3.74805L14.8659 3.74764C14.8782 3.74761 14.8897 3.74758 14.9004 3.74756H15.0959ZM11.9982 9.76855V18.8007L19.7921 14.2849L11.9982 9.76855Z" fill="#2A2A2A"/>
</svg>
